<svg width="30" height="23" viewBox="0 0 30 23" fill="none" xmlns="http://www.w3.org/2000/svg"><path fill-rule="evenodd" clip-rule="evenodd" d="M29.053 18.356V23c-7.137 0-12.896-5.897-12.896-13.159v-6.56C16.157 1.473 17.605 0 19.38 0h6.448c1.775 0 3.224 1.474 3.224 3.28v6.561c0 1.806-1.45 3.28-3.224 3.28h-4.311c1.376 2.913 4.202 5.014 7.535 5.235ZM0 9.84v-6.56C0 1.473 1.449 0 3.224 0h6.448c1.775 0 3.224 1.474 3.224 3.28v6.561c0 1.806-1.449 3.28-3.224 3.28H5.398c1.376 2.913 4.165 4.977 7.498 5.235V23C5.796 23 0 17.103 0 9.841Z" fill="#C7C7D5"/></svg>